# xmcd
#
# Track frame offsets:
#	150
#	72072
#	95303
#	128160
#
# Disc length: 1980 seconds
# Revision: 0
# Processed by: cddbd v1.5.2PL0 Copyright (c) Steve Scherf et al.
# Submitted via: dBpowerAMP V12.0
#
DISCID=2b07ba04
DTITLE=Various Artist - (VA) DISCOLETTE [Disc2]
DYEAR=2010
DGENRE=Disco
TTITLE0=Montana - A Dance Fantasy Inspired By Close Encounters Of The Third Kind
TTITLE1=Chilly Gonzales - Knight Moves
TTITLE2=Rod Mckuen - Mel's Song (Mon Amour, Mon Ami)
TTITLE3=The Jones Girls - You Gonna Make Me Love Somebody Else
EXTD=
EXTT0=
EXTT1=
EXTT2=
EXTT3=
PLAYORDER=
